# xmcd
#
# Track frame offsets: 
#        150
#        13010
#        27350
#        39367
#        54636
#        66406
#        79136
#        94665
#        109918
#        124176
#        136559
#        148171
#        160456
#        172604
#        185514
#        198670
#        212444
#        226794
#        242193
#        257108
#        270296
#        285159
#        299824
#        312054
#        325992
#
# Disc length: 4525 seconds
#
# Revision: 2
# Processed by: cddbd v1.5.2PL0 Copyright (c) Steve Scherf et al.
# Submitted via: ExactAudioCopyFreeDBPlugin 1.0
#
DISCID=6611ab19
DTITLE=Various Artist - When the Levee Breaks:  Mississippi Blues Rar
DTITLE=e Cuts, 1926-1941 [JSP Records]
DYEAR=2007
DGENRE=Blues
TTITLE0=Son House - Mississippi County Farm Blues
TTITLE1=Joe McCoy - When the Levee Breaks
TTITLE2=Blind Joe Reynolds - Ninety Nine Blues
TTITLE3=Jelly Jaw Short - Snake Doctor Blues
TTITLE4=Otto Virgial - Little Girl in Rome
TTITLE5=Mississippi Moaner - It's Cold in China Blues
TTITLE6=Willie "61" Blackwell - Bald Eagle Blues
TTITLE7=Bogus Ben Covington - Boodle-De-Bum Blues
TTITLE8=William Harris - Bull Frog Blues
TTITLE9=Mississippi Jook Band - Dangerous Woman
TTITLE10=Buddy Boy Hawkins - Shaggy Dog Blues
TTITLE11=Sam Collins - Devil in the Lion's Den
TTITLE12=Arthur Petties - Quarrellin' Mama Blues
TTITLE13=Sam Butler - Devil and My Brown Blues
TTITLE14=Robert Lockwood - Take a Little Walk with Me
TTITLE15=Charlie McCoy - Last Time Blues
TTITLE16=Garfield Akers - Dough Roller Blues
TTITLE17=Walter Rhodes - The Crowing Rooster
TTITLE18=Elva Thomas and Geeshie Wiley - Motherless Child Blues
TTITLE19=George Torey - Married Woman Blues
TTITLE20=Willie "61" Blackwell - She's Young and Wild
TTITLE21=Mississippi Bracey - Cherry Ball
TTITLE22=Otto Virgial - Bad Notion Blues
TTITLE23=Freddie Spruell - Don't Cry Baby
TTITLE24=Kid Bailey - Rowdy Blues
EXTD=
EXTT0=
EXTT1=
EXTT2=
EXTT3=
EXTT4=
EXTT5=
EXTT6=
EXTT7=
EXTT8=
EXTT9=
EXTT10=
EXTT11=
EXTT12=
EXTT13=
EXTT14=
EXTT15=
EXTT16=
EXTT17=
EXTT18=
EXTT19=
EXTT20=
EXTT21=
EXTT22=
EXTT23=
EXTT24=
PLAYORDER=
